<?xml version="1.0" encoding="UTF-8" standalone="no"?>
<!-- Created with Inkscape (http://www.inkscape.org/) -->

<svg
   width="210.00005mm"
   height="297mm"
   viewBox="0 0 210.00005 297"
   version="1.1"
   id="svg1"
   xml:space="preserve"
   sodipodi:docname="fancy-thumbprint-dk-blue.svg"
   inkscape:export-filename="../../chill-points/public/images/thumb-print-dk-blue.svg"
   inkscape:export-xdpi="96.761902"
   inkscape:export-ydpi="96.761902"
   xmlns:inkscape="http://www.inkscape.org/namespaces/inkscape"
   xmlns:sodipodi="http://sodipodi.sourceforge.net/DTD/sodipodi-0.dtd"
   xmlns="http://www.w3.org/2000/svg"
   xmlns:svg="http://www.w3.org/2000/svg"><sodipodi:namedview
     id="namedview1"
     pagecolor="#505050"
     bordercolor="#eeeeee"
     borderopacity="1"
     inkscape:showpageshadow="0"
     inkscape:pageopacity="0"
     inkscape:pagecheckerboard="0"
     inkscape:deskcolor="#505050"
     inkscape:document-units="mm"
     inkscape:export-bgcolor="#00000000"
     inkscape:zoom="0.73453373"
     inkscape:cx="396.85039"
     inkscape:cy="561.58075"
     inkscape:window-width="1392"
     inkscape:window-height="1212"
     inkscape:window-x="934"
     inkscape:window-y="645"
     inkscape:window-maximized="0"
     inkscape:current-layer="layer1" /><defs
     id="defs1"><style
       id="style1">&#10;      .cls-1 {&#10;        stroke-width: 0px;&#10;      }&#10;    </style></defs><g
     inkscape:label="Layer 1"
     inkscape:groupmode="layer"
     id="layer1"><path
       class="cls-1"
       d="m 102.29129,187.9721 c -0.33073,0 -0.635,-0.16668 -0.81227,-0.44714 -0.28311,-0.44715 -0.14817,-1.03982 0.29898,-1.32292 0.19314,-0.12171 0.39952,-0.24342 0.61119,-0.36248 2.36537,-1.23825 4.88685,-1.8706 7.48506,-1.8706 1.60337,0 3.2676,0.24077 4.94506,0.71437 0.24606,0.0688 0.45244,0.23019 0.57679,0.45509 0.12436,0.22225 0.15611,0.48154 0.0847,0.7276 -0.11642,0.4101 -0.49477,0.6985 -0.92339,0.6985 -0.0873,0 -0.17463,-0.0132 -0.26194,-0.037 -1.524,-0.43127 -3.02154,-0.65088 -4.445,-0.65088 -2.29129,0 -4.43442,0.53975 -6.55373,1.64836 -0.15611,0.0873 -0.32808,0.1905 -0.49742,0.29633 -0.15346,0.0979 -0.33073,0.14817 -0.51064,0.14817 z m -8.805333,-2.53471 c -0.463021,0 -0.859896,-0.33072 -0.941917,-0.78581 -0.09525,-0.51858 0.251354,-1.02129 0.769937,-1.11654 4.471459,-0.81756 7.149043,-3.66977 9.511773,-6.18331 1.79652,-1.91294 3.34962,-3.56659 5.29166,-3.56659 1.41288,0 2.66965,1.12713 3.99786,2.31775 1.77535,1.5928 3.60892,3.2385 6.21242,3.2385 1.42081,0 2.89983,-0.49212 4.52437,-1.50547 0.15346,-0.0952 0.32808,-0.14553 0.50535,-0.14553 0.33338,0 0.63765,0.16934 0.81492,0.45244 0.28046,0.44979 0.14288,1.04246 -0.30692,1.32027 -1.90764,1.19063 -3.76237,1.79388 -5.51391,1.79388 -3.36286,0 -5.76527,-2.15371 -7.51946,-3.72534 -1.23296,-1.10595 -2.08756,-1.82827 -2.71727,-1.82827 -1.1139,0 -2.39977,1.37055 -3.88938,2.9554 -2.31245,2.46327 -5.476871,5.83142 -10.5701,6.76275 -0.05556,0.0106 -0.116417,0.0159 -0.174625,0.0159 z m -3.71475,-4.01902 c -0.404813,0 -0.767292,-0.25664 -0.904875,-0.64029 -0.478896,-1.35202 -0.460375,-2.56381 0.05292,-3.59833 0.891646,-1.80181 3.048,-2.49238 4.082521,-2.82575 l 0.224896,-0.0741 c 14.978061,-4.97681 17.899061,-23.5241 17.221731,-29.35552 -0.27252,-2.33627 -1.71186,-4.52702 -3.66977,-5.58271 -0.74084,-0.40217 -1.4949,-0.60325 -2.23573,-0.60325 -0.61913,0 -1.21973,0.14552 -1.78594,0.42863 -2.833687,1.42081 -3.058583,3.27554 -3.264958,7.00616 -0.07673,1.40494 -0.166687,2.98979 -0.481541,4.73075 -1.521355,8.34231 -10.170584,13.94619 -17.293167,13.94619 -0.529167,0 -0.957792,-0.43127 -0.957792,-0.95779 0,-0.52652 0.431271,-0.95779 0.957792,-0.95779 6.220354,0 14.078479,-5.08 15.406687,-12.37192 0.296334,-1.62454 0.375709,-3.0824 0.455084,-4.49263 0.195791,-3.55864 0.367771,-6.63045 4.320645,-8.61218 0.83873,-0.42069 1.73038,-0.635 2.64583,-0.635 1.05834,0 2.11667,0.28046 3.14325,0.83608 2.49238,1.34408 4.3233,4.11163 4.66461,7.0485 0.95514,8.21002 -3.61686,26.44775 -18.518189,31.3981 l -0.248709,0.0794 c -0.846666,0.27253 -2.418291,0.77788 -2.950104,1.84944 -0.277812,0.56092 -0.264583,1.24884 0.03704,2.10609 0.177271,0.49741 -0.08731,1.04775 -0.584729,1.22502 -0.103188,0.037 -0.211667,0.0556 -0.320146,0.0556 z m 26.307523,-7.56973 c -0.11377,0 -0.23019,-0.0212 -0.34132,-0.0635 -5.6462,-2.14577 -3.56393,-8.11212 -1.35995,-14.43037 2.05052,-5.87904 4.37356,-12.5439 1.90764,-18.15835 -2.38919,-5.43719 -7.11994,-8.81592 -12.3481,-8.81592 -1.10861,0 -2.2225,0.1561 -3.30729,0.46302 -6.62517,2.06375 -7.823732,9.68375 -8.032753,11.96975 -0.518584,5.65415 -4.185709,12.12056 -12.927542,13.31383 -0.04233,0.005 -0.08731,0.008 -0.129646,0.008 -0.47625,0 -0.886354,-0.35718 -0.949854,-0.82814 -0.0344,-0.254 0.03175,-0.50536 0.187854,-0.70909 0.156104,-0.20372 0.381,-0.33602 0.635,-0.37041 9.599084,-1.31234 11.059584,-9.20221 11.276542,-11.5914 0.632354,-6.90033 4.146021,-11.99621 9.397999,-13.63133 1.26735,-0.35719 2.57704,-0.5424 3.87879,-0.5424 5.98488,0 11.37973,3.81794 14.07848,9.96421 2.77019,6.30502 0.20638,13.65515 -1.85473,19.56065 -2.34421,6.72041 -3.48985,10.59391 0.23284,12.00943 0.24077,0.09 0.42862,0.26988 0.53445,0.50271 0.10584,0.23284 0.11377,0.49477 0.0212,0.73554 -0.14023,0.37042 -0.50006,0.61913 -0.89693,0.61913 z m 8.73918,-1.35466 c -0.14022,0 -0.27516,-0.0291 -0.40216,-0.0873 -2.13784,-0.9869 -3.57717,-2.45534 -4.27038,-4.36828 -1.14829,-3.16177 0.18521,-6.13568 0.34132,-6.46641 3.57187,-7.54856 4.38679,-16.38036 2.07697,-22.50017 -3.32845,-8.22589 -10.75531,-13.53608 -18.92564,-13.53608 -1.7489,0 -3.50044,0.24341 -5.209647,0.7276 -1.928812,0.60061 -3.672416,1.53723 -5.199062,2.78871 -0.174625,0.14288 -0.383646,0.21696 -0.605896,0.21696 -0.288396,0 -0.560917,-0.127 -0.743479,-0.3519 -0.161396,-0.19843 -0.238125,-0.44714 -0.211667,-0.70114 0.02646,-0.254 0.148167,-0.48419 0.346604,-0.64823 1.717146,-1.40759 3.690938,-2.46592 5.868459,-3.14325 1.886479,-0.53181 3.833808,-0.80434 5.775858,-0.80434 8.94291,0 17.06562,5.79173 20.69306,14.75317 3.02683,8.01158 0.74612,17.94669 -2.12725,24.01888 -0.40746,0.86254 -0.98954,3.0136 -0.27252,4.99004 0.51329,1.41552 1.61396,2.51883 3.27289,3.28348 0.4789,0.22225 0.69057,0.79375 0.46832,1.27264 -0.15611,0.33867 -0.49742,0.55563 -0.87048,0.55563 z M 84.908165,171.9701 c -0.468313,0 -0.865188,-0.33602 -0.944563,-0.79904 -0.08996,-0.52123 0.264583,-1.016 0.785813,-1.10596 3.966104,-0.67468 7.416271,-2.05052 10.252604,-4.08781 0.164042,-0.11906 0.357188,-0.17992 0.558271,-0.17992 0.306917,0 0.600604,0.14817 0.777875,0.39952 0.150812,0.20903 0.209021,0.46303 0.166688,0.71438 -0.04233,0.25135 -0.179917,0.4736 -0.386292,0.62442 -3.074458,2.20927 -6.791854,3.69623 -11.051646,4.42118 -0.05292,0.0106 -0.105834,0.0132 -0.161396,0.0132 z m 43.322875,-4.09575 c -0.14552,0 -0.2884,-0.0344 -0.42333,-0.10054 -0.47361,-0.23283 -0.6694,-0.80962 -0.43392,-1.28323 2.83104,-5.7441 3.9079,-11.80835 3.28612,-18.54464 -0.0635,-0.54504 -0.15081,-1.1139 -0.24606,-1.66159 -0.0926,-0.52123 0.254,-1.02129 0.77523,-1.11389 0.0582,-0.0106 0.11377,-0.0159 0.17198,-0.0159 0.46302,0 0.8599,0.33337 0.94192,0.7911 0.10583,0.59796 0.19579,1.20121 0.26723,1.79652 0.64558,7.00882 -0.52123,13.60752 -3.47398,19.5924 -0.16404,0.33073 -0.49213,0.53446 -0.86254,0.53446 z m -28.276021,-4.39473 c -0.214312,0 -0.418041,-0.0688 -0.587375,-0.20108 -0.418042,-0.32279 -0.492125,-0.92869 -0.169333,-1.34408 4.302129,-5.53509 5.204349,-12.35604 5.204349,-17.10267 0,-0.52917 0.43128,-0.95779 0.9578,-0.95779 0.52652,0 0.95779,0.43127 0.95779,0.95779 0,5.04825 -0.97367,12.31635 -5.60917,18.28006 -0.18256,0.23548 -0.46037,0.37042 -0.756707,0.37042 z M 78.214206,151.08919 c -0.505354,0 -0.926041,-0.39688 -0.955145,-0.90223 -0.01588,-0.25665 0.06879,-0.50271 0.24077,-0.69321 0.17198,-0.1905 0.404813,-0.30427 0.658813,-0.32015 4.410604,-0.26193 5.725583,-3.09827 6.609291,-8.23912 0.36248,-2.12196 1.185334,-5.30225 3.034772,-8.41111 0.174625,-0.29368 0.484187,-0.46831 0.8255,-0.46831 0.171979,0 0.341312,0.0476 0.489479,0.13494 0.452437,0.26987 0.60325,0.85989 0.333375,1.31498 -1.701271,2.8575 -2.45798,5.79437 -2.794001,7.75494 -0.820208,4.76779 -2.143125,9.4562 -8.384645,9.82927 -0.02646,0 -0.04233,0 -0.05821,0 z m 52.133504,-10.88496 c -0.44186,0 -0.82286,-0.29898 -0.92869,-0.72761 -1.32292,-5.35252 -4.10104,-10.26318 -8.04069,-14.20018 -4.83394,-4.4794 -11.00402,-6.93738 -17.38577,-6.93738 -0.79904,0 -1.60867,0.0397 -2.40242,0.11906 -6.744225,0.6694 -12.673538,4.10634 -16.69785,9.67846 -2.137834,3.23586 -3.622146,6.58284 -4.418542,9.96156 -0.103188,0.43392 -0.484188,0.73819 -0.931333,0.73819 -0.07408,0 -0.150813,-0.008 -0.22225,-0.0265 -0.248709,-0.0582 -0.460375,-0.21166 -0.595313,-0.42862 -0.134937,-0.21696 -0.177271,-0.47625 -0.116417,-0.72496 0.851959,-3.60362 2.436813,-7.17285 4.709584,-10.61244 4.357688,-6.03514 10.784417,-9.77106 18.084271,-10.49602 0.8599,-0.0873 1.73567,-0.12964 2.6035,-0.12964 6.86065,0 13.50169,2.65377 18.7034,7.47448 4.19629,4.19629 7.16756,9.43239 8.5725,15.12093 0.127,0.51329 -0.18786,1.03452 -0.70115,1.16152 -0.0741,0.0185 -0.15346,0.0291 -0.23019,0.0291 z m -4.97946,-20.45229 c -0.24606,0 -0.47625,-0.0953 -0.65352,-0.26459 -5.09323,-4.92654 -11.13367,-7.70995 -17.95727,-8.27616 -0.86784,-0.0873 -1.76213,-0.13229 -2.64848,-0.13229 -7.305148,0 -14.464773,2.95275 -20.155961,8.3132 -0.174625,0.16669 -0.404813,0.25665 -0.642938,0.25665 -0.261937,0 -0.505354,-0.10583 -0.685271,-0.29633 -0.354541,-0.37836 -0.338666,-0.97367 0.03969,-1.32821 6.040438,-5.69119 13.6525,-8.8265 21.43654,-8.8265 0.94192,0 1.89442,0.0476 2.8284,0.14023 7.25752,0.6006 13.67895,3.56129 19.09233,8.79739 0.17992,0.17463 0.2831,0.40746 0.28575,0.65882 0.005,0.25135 -0.09,0.48947 -0.26458,0.66939 -0.17728,0.18521 -0.41805,0.28575 -0.67469,0.28575 z"
       id="path1"
       style="fill:#1b0000;fill-opacity:1;stroke:#000000;stroke-width:0.264583;stroke-linecap:round;stroke-linejoin:round;stroke-dasharray:none;stroke-dashoffset:0;stroke-opacity:1" /></g></svg>
